<mxfile host="app.diagrams.net" modified="2022-07-06T03:52:36.357Z" agent="5.0 (Macintosh; Intel Mac OS X 10_15_7) AppleWebKit/537.36 (KHTML, like Gecko) Chrome/102.0.0.0 Safari/537.36" etag="mELWRyW41FmxoG4Axqas" version="20.0.4" type="github">
  <diagram id="ZRSDhsgje8dBJ1ifRGj1" name="Page-1">
    <mxGraphModel dx="1288" dy="690" grid="1" gridSize="10" guides="1" tooltips="1" connect="1" arrows="1" fold="1" page="1" pageScale="1" pageWidth="827" pageHeight="1169" math="0" shadow="0">
      <root>
        <mxCell id="0" />
        <mxCell id="1" parent="0" />
        <mxCell id="vNObcAi_k0ezY5_OdU4e-6" style="edgeStyle=orthogonalEdgeStyle;rounded=0;orthogonalLoop=1;jettySize=auto;html=1;exitX=1;exitY=0.5;exitDx=0;exitDy=0;" edge="1" parent="1" source="vNObcAi_k0ezY5_OdU4e-1" target="vNObcAi_k0ezY5_OdU4e-5">
          <mxGeometry relative="1" as="geometry" />
        </mxCell>
        <mxCell id="vNObcAi_k0ezY5_OdU4e-1" value="" style="whiteSpace=wrap;html=1;aspect=fixed;" vertex="1" parent="1">
          <mxGeometry x="210" y="140" width="150" height="150" as="geometry" />
        </mxCell>
        <mxCell id="vNObcAi_k0ezY5_OdU4e-5" value="" style="whiteSpace=wrap;html=1;aspect=fixed;" vertex="1" parent="1">
          <mxGeometry x="470" y="140" width="150" height="150" as="geometry" />
        </mxCell>
      </root>
    </mxGraphModel>
  </diagram>
</mxfile>
